REM DIRINDEX 1\2,1\3,1\4,1\5
REM DIRNAME cjc005,folder01,folder02,folder03,folder04
TITLE ""
FILE "P1Q_j_1733-1746.mp3" MP3
  TRACK 01 AUDIO
    TITLE "3:cjc005_0548"
    INDEX 01 00:00:00
  TRACK 02 AUDIO
    TITLE "0:"
    INDEX 01 00:01:40
  TRACK 03 AUDIO
    TITLE "4:cjc005_0549"
    INDEX 01 00:01:69
  TRACK 04 AUDIO
    TITLE "0:"
    INDEX 01 00:03:06
  TRACK 05 AUDIO
    TITLE "5:cjc005_0550"
    INDEX 01 00:03:35
  TRACK 06 AUDIO
    TITLE "0:"
    INDEX 01 00:06:12
  TRACK 07 AUDIO
    TITLE "3:cjc005_0551"
    INDEX 01 00:06:65
  TRACK 08 AUDIO
    TITLE "0:"
    INDEX 01 00:08:15
  TRACK 09 AUDIO
    TITLE "4:cjc005_0552"
    INDEX 01 00:08:62
  TRACK 10 AUDIO
    TITLE "0:"
    INDEX 01 00:10:66
  TRACK 11 AUDIO
    TITLE "5:cjc005_0553"
    INDEX 01 00:11:17
  TRACK 12 AUDIO
    TITLE "0:"
    INDEX 01 00:15:13
  TRACK 13 AUDIO
    TITLE "3:cjc005_0554"
    INDEX 01 00:16:00
  TRACK 14 AUDIO
    TITLE "0:"
    INDEX 01 00:17:23
  TRACK 15 AUDIO
    TITLE "4:cjc005_0555"
    INDEX 01 00:17:49
  TRACK 16 AUDIO
    TITLE "0:"
    INDEX 01 00:19:28
  TRACK 17 AUDIO
    TITLE "5:cjc005_0556"
    INDEX 01 00:19:56
  TRACK 18 AUDIO
    TITLE "0:"
    INDEX 01 00:22:48
  TRACK 19 AUDIO
    TITLE "3:cjc005_0557"
    INDEX 01 00:23:24
  TRACK 20 AUDIO
    TITLE "0:"
    INDEX 01 00:24:49
  TRACK 21 AUDIO
    TITLE "4:cjc005_0558"
    INDEX 01 00:25:03
  TRACK 22 AUDIO
    TITLE "0:"
    INDEX 01 00:26:26
  TRACK 23 AUDIO
    TITLE "5:cjc005_0559"
    INDEX 01 00:26:52
  TRACK 24 AUDIO
    TITLE "0:"
    INDEX 01 00:29:44
  TRACK 25 AUDIO
    TITLE "3:cjc005_0560"
    INDEX 01 00:30:22
  TRACK 26 AUDIO
    TITLE "0:"
    INDEX 01 00:31:39
  TRACK 27 AUDIO
    TITLE "4:cjc005_0561"
    INDEX 01 00:31:69
  TRACK 28 AUDIO
    TITLE "0:"
    INDEX 01 00:33:17
  TRACK 29 AUDIO
    TITLE "5:cjc005_0562"
    INDEX 01 00:33:42
  TRACK 30 AUDIO
    TITLE "0:"
    INDEX 01 00:37:38
  TRACK 31 AUDIO
    TITLE "3:cjc005_0563"
    INDEX 01 00:38:16
  TRACK 32 AUDIO
    TITLE "0:"
    INDEX 01 00:39:41
  TRACK 33 AUDIO
    TITLE "4:cjc005_0564"
    INDEX 01 00:39:72
  TRACK 34 AUDIO
    TITLE "0:"
    INDEX 01 00:41:06
  TRACK 35 AUDIO
    TITLE "5:cjc005_0565"
    INDEX 01 00:41:34
  TRACK 36 AUDIO
    TITLE "0:"
    INDEX 01 00:44:69
  TRACK 37 AUDIO
    TITLE "3:cjc005_0566"
    INDEX 01 00:45:49
  TRACK 38 AUDIO
    TITLE "0:"
    INDEX 01 00:46:74
  TRACK 39 AUDIO
    TITLE "4:cjc005_0567"
    INDEX 01 00:47:34
  TRACK 40 AUDIO
    TITLE "0:"
    INDEX 01 00:48:40
  TRACK 41 AUDIO
    TITLE "5:cjc005_0568"
    INDEX 01 00:48:63
  TRACK 42 AUDIO
    TITLE "0:"
    INDEX 01 00:51:58
  TRACK 43 AUDIO
    TITLE "3:cjc005_0569"
    INDEX 01 00:52:45
  TRACK 44 AUDIO
    TITLE "0:"
    INDEX 01 00:53:64
  TRACK 45 AUDIO
    TITLE "4:cjc005_0570"
    INDEX 01 00:54:23
  TRACK 46 AUDIO
    TITLE "0:"
    INDEX 01 00:55:42
  TRACK 47 AUDIO
    TITLE "5:cjc005_0571"
    INDEX 01 00:55:67
  TRACK 48 AUDIO
    TITLE "0:"
    INDEX 01 01:00:06
  TRACK 49 AUDIO
    TITLE "3:cjc005_0572"
    INDEX 01 01:00:60
  TRACK 50 AUDIO
    TITLE "0:"
    INDEX 01 01:02:10
  TRACK 51 AUDIO
    TITLE "4:cjc005_0573"
    INDEX 01 01:02:40
  TRACK 52 AUDIO
    TITLE "0:"
    INDEX 01 01:04:33
  TRACK 53 AUDIO
    TITLE "5:cjc005_0574"
    INDEX 01 01:04:58
  TRACK 54 AUDIO
    TITLE "0:"
    INDEX 01 01:09:28
  TRACK 55 AUDIO
    TITLE "3:cjc005_0575"
    INDEX 01 01:10:12
  TRACK 56 AUDIO
    TITLE "0:"
    INDEX 01 01:11:19
  TRACK 57 AUDIO
    TITLE "4:cjc005_0576"
    INDEX 01 01:11:64
  TRACK 58 AUDIO
    TITLE "0:"
    INDEX 01 01:13:00
  TRACK 59 AUDIO
    TITLE "5:cjc005_0577"
    INDEX 01 01:13:26
  TRACK 60 AUDIO
    TITLE "0:"
    INDEX 01 01:17:73
  TRACK 61 AUDIO
    TITLE "3:cjc005_0578"
    INDEX 01 01:18:53
  TRACK 62 AUDIO
    TITLE "0:"
    INDEX 01 01:19:60
  TRACK 63 AUDIO
    TITLE "4:cjc005_0579"
    INDEX 01 01:20:20
  TRACK 64 AUDIO
    TITLE "0:"
    INDEX 01 01:21:49
  TRACK 65 AUDIO
    TITLE "5:cjc005_0580"
    INDEX 01 01:21:74
  TRACK 66 AUDIO
    TITLE "0:"
    INDEX 01 01:25:09
  TRACK 67 AUDIO
    TITLE "3:cjc005_0581"
    INDEX 01 01:25:66
  TRACK 68 AUDIO
    TITLE "0:"
    INDEX 01 01:27:12
  TRACK 69 AUDIO
    TITLE "4:cjc005_0582"
    INDEX 01 01:27:44
  TRACK 70 AUDIO
    TITLE "0:"
    INDEX 01 01:29:58
  TRACK 71 AUDIO
    TITLE "5:cjc005_0583"
    INDEX 01 01:30:09
  TRACK 72 AUDIO
    TITLE "0:"
    INDEX 01 01:34:14
  TRACK 73 AUDIO
    TITLE "3:cjc005_0584"
    INDEX 01 01:34:67
  TRACK 74 AUDIO
    TITLE "0:"
    INDEX 01 01:36:09
  TRACK 75 AUDIO
    TITLE "4:cjc005_0585"
    INDEX 01 01:36:37
  TRACK 76 AUDIO
    TITLE "0:"
    INDEX 01 01:37:48
  TRACK 77 AUDIO
    TITLE "5:cjc005_0586"
    INDEX 01 01:38:04
  TRACK 78 AUDIO
    TITLE "0:"
    INDEX 01 01:42:10
  TRACK 79 AUDIO
    TITLE "3:cjc005_0587"
    INDEX 01 01:42:73
  TRACK 80 AUDIO
    TITLE "0:"
    INDEX 01 01:43:68
  TRACK 81 AUDIO
    TITLE "4:cjc005_0588"
    INDEX 01 01:44:30
  TRACK 82 AUDIO
    TITLE "0:"
    INDEX 01 01:45:20
  TRACK 83 AUDIO
    TITLE "5:cjc005_0589"
    INDEX 01 01:45:49
  TRACK 84 AUDIO
    TITLE "0:"
    INDEX 01 01:48:28
